{"accessors":[{"name":"Node-Mesh_0_positions","componentType":5126,"count":72,"min":[216285.765625,513301.5625,196.07728576660156],"max":[216336.9375,513346.0625,213.52301025390625],"type":"VEC3","bufferView":0,"byteOffset":0},{"name":"Node-Mesh_0_texcoords","componentType":5126,"count":72,"min":[0.0004879999905824661,0.0004870000120718032],"max":[0.9912109971046448,0.5927730202674866],"type":"VEC2","bufferView":1,"byteOffset":0},{"name":"Node-Mesh_0_indices","componentType":5123,"count":72,"min":[0],"max":[71],"type":"SCALAR","bufferView":2,"byteOffset":0}],"asset":{"generator":"obj2gltf","version":"2.0"},"buffers":[{"name":"bbb00001","byteLength":1038892,"uri":"data:application/octet-stream;base64,"}],"bufferViews":[{"name":"bufferView_0","buffer":0,"byteLength":864,"byteOffset":0,"byteStride":12,"target":34962},{"name":"bufferView_1","buffer":0,"byteLength":576,"byteOffset":864,"byteStride":8,"target":34962},{"name":"bufferView_2","buffer":0,"byteLength":144,"byteOffset":1440,"target":34963},{"buffer":0,"byteOffset":1584,"byteLength":1037305}],"images":[{"name":"bbb00001","mimeType":"image/jpeg","bufferView":3}],"materials":[{"name":"texture1","pbrMetallicRoughness":{"baseColorTexture":{"index":0},"baseColorFactor":[1,1,1,1],"metallicFactor":0,"roughnessFactor":1},"emissiveFactor":[0,0,0],"alphaMode":"OPAQUE","doubleSided":false}],"meshes":[{"name":"Node-Mesh","primitives":[{"attributes":{"POSITION":0,"TEXCOORD_0":1},"indices":2,"material":0,"mode":4}]}],"nodes":[{"name":"Node","mesh":0}],"samplers":[{"wrapS":10497,"wrapT":10497}],"scene":0,"scenes":[{"nodes":[0]}],"textures":[{"name":"bbb00001","sampler":0,"source":0}]}